<?xml version="1.0" standalone="no"?>
<!DOCTYPE svg PUBLIC "-//W3C//DTD SVG 20010904//EN"
 "http://www.w3.org/TR/2001/REC-SVG-20010904/DTD/svg10.dtd">
<svg version="1.0" xmlns="http://www.w3.org/2000/svg"
 width="105.000000pt" height="105.000000pt" viewBox="0 0 105.000000 105.000000"
 preserveAspectRatio="xMidYMid meet">
<metadata>
Created by potrace 1.14, written by Peter Selinger 2001-2017
</metadata>
<g transform="translate(0.000000,105.000000) scale(0.100000,-0.100000)"
fill="#000000" stroke="none">
<path d="M385 1031 c-33 -9 -83 -29 -110 -44 -102 -56 -209 -183 -237 -282 -6
-22 -13 -47 -16 -55 -2 -8 -6 -60 -7 -116 -3 -85 0 -112 21 -172 59 -177 187
-296 366 -341 209 -52 434 41 552 228 64 101 93 280 65 397 -45 190 -197 346
-377 388 -80 19 -183 17 -257 -3z"/>
</g>
</svg>
